<?xml version="1.0" encoding="UTF-8"?>
<svg width="32" height="32" viewBox="0 0 32 32" fill="none" xmlns="http://www.w3.org/2000/svg">
  <!-- Fondo del círculo principal -->
  <circle cx="16" cy="16" r="16" fill="#1D4ED8" />
  
  <!-- Martillo de subasta estilizado -->
  <path d="M22 12L20 10L16 14L18 16L22 12Z" fill="white" />
  <rect x="15.5" y="14.5" width="2" height="8" transform="rotate(-45 15.5 14.5)" fill="white" />
  
  <!-- Base del martillo -->
  <rect x="10" y="20" width="6" height="2" rx="1" fill="white" />
  
  <!-- Letra B estilizada -->
  <path d="M12 8H16C17.1046 8 18 8.89543 18 10V11C18 12.1046 17.1046 13 16 13H12V8Z" fill="white" />
  <path d="M12 13H16C17.1046 13 18 13.8954 18 15V16C18 17.1046 17.1046 18 16 18H12V13Z" fill="white" />
  <rect x="12" y="8" width="2" height="10" fill="white" />
</svg>
